<svg xmlns="http://www.w3.org/2000/svg" viewBox="0 0 400 300" preserveAspectRatio="xMidYMid slice" role="img" aria-label="Gato">
  <rect width="400" height="300" fill="#FFE7F0"/>
  <g transform="translate(200 175)">
    <ellipse cx="0" cy="40" rx="100" ry="60" fill="#F2F2F2"/>
    <circle cx="0" cy="-10" r="70" fill="#F2F2F2"/>
    <path d="M-70 -50 L-45 -95 L-30 -50 Z" fill="#F2F2F2"/>
    <path d="M70 -50 L45 -95 L30 -50 Z" fill="#F2F2F2"/>
    <path d="M-62 -55 L-48 -85 L-38 -55 Z" fill="#FFB6C1"/>
    <path d="M62 -55 L48 -85 L38 -55 Z" fill="#FFB6C1"/>
    <ellipse cx="-22" cy="-12" rx="9" ry="13" fill="#69B7E6"/>
    <ellipse cx="22" cy="-12" rx="9" ry="13" fill="#69B7E6"/>
    <ellipse cx="-22" cy="-10" rx="3" ry="9" fill="#1A1A1A"/>
    <ellipse cx="22" cy="-10" rx="3" ry="9" fill="#1A1A1A"/>
    <path d="M-8 14 L8 14 L0 24 Z" fill="#FFB6C1"/>
    <path d="M-25 28 q12 8 25 0 q12 -8 25 0" stroke="#1A1A1A" stroke-width="2" fill="none" stroke-linecap="round"/>
    <line x1="-58" y1="0" x2="-32" y2="4" stroke="#1A1A1A" stroke-width="1.5"/>
    <line x1="-58" y1="10" x2="-32" y2="10" stroke="#1A1A1A" stroke-width="1.5"/>
    <line x1="58" y1="0" x2="32" y2="4" stroke="#1A1A1A" stroke-width="1.5"/>
    <line x1="58" y1="10" x2="32" y2="10" stroke="#1A1A1A" stroke-width="1.5"/>
  </g>
</svg>
